<svg width="36" height="36" viewBox="0 0 36 36" fill="none" xmlns="http://www.w3.org/2000/svg">
<g id="Iconly/Broken/Add-User">
<g id="Add-User">
<path id="Vector" d="M14.952 22.7534C19.0102 22.775 28.5172 23.1428 28.5172 29.394C28.5172 35.3142 20.3799 36 14.2586 36C13.6416 36 13.0336 35.991 12.4364 35.9766C11.7261 35.955 11.1665 35.3592 11.1881 34.6446C11.2078 33.9318 11.823 33.3954 12.5117 33.39C13.0838 33.408 13.6667 33.4152 14.2586 33.4152C22.0103 33.4152 25.9417 32.0634 25.9417 29.394C25.9417 26.7012 22.0103 25.3369 14.2586 25.3369C6.50694 25.3369 2.57552 26.6904 2.57552 29.358C2.57552 30.231 2.884 31.4964 5.56175 32.4072C6.23612 32.6358 6.59662 33.3702 6.36884 34.0452C6.13927 34.7184 5.41109 35.0892 4.73493 34.8552C0.821439 33.525 0 31.131 0 29.358C0 23.4361 8.13726 22.7521 14.2586 22.7521L14.952 22.7534ZM30.9853 10.862C31.7278 10.862 32.3304 11.4668 32.3304 12.212V14.4692H34.6548C35.3974 14.4692 36 15.074 36 15.8192C36 16.5644 35.3974 17.1692 34.6548 17.1692H32.3304V19.4282C32.3304 20.1734 31.7278 20.7782 30.9853 20.7782C30.2428 20.7782 29.6401 20.1734 29.6401 19.4282V17.1692H27.3193C26.5768 17.1692 25.9741 16.5644 25.9741 15.8192C25.9741 15.074 26.5768 14.4692 27.3193 14.4692H29.6401V12.212C29.6401 11.4668 30.2428 10.862 30.9853 10.862ZM14.2586 0C19.5531 0 23.8594 4.32358 23.8594 9.63715C23.8594 14.9507 19.5531 19.2743 14.2586 19.2743C8.96408 19.2743 4.65781 14.9507 4.65781 9.63715C4.65781 4.32358 8.96408 0 14.2586 0ZM14.2586 2.58659C10.3846 2.58659 7.23332 5.74917 7.23332 9.63715C7.23332 13.5251 10.3846 16.6877 14.2586 16.6877C18.1326 16.6877 21.2839 13.5251 21.2839 9.63715C21.2839 5.74917 18.1326 2.58659 14.2586 2.58659Z" fill="url(#paint0_linear_82_4608)"/>
</g>
</g>
<defs>
<linearGradient id="paint0_linear_82_4608" x1="0.63" y1="3.60393e-07" x2="33.8785" y2="36.8186" gradientUnits="userSpaceOnUse">
<stop stop-color="#80FCF0"/>
<stop offset="0.526042" stop-color="#EFCE85"/>
<stop offset="1" stop-color="#AC5DFA"/>
</linearGradient>
</defs>
</svg>
