<svg width="70" height="70" viewBox="0 0 70 70" fill="none" xmlns="http://www.w3.org/2000/svg">
<rect width="70" height="70" rx="35" fill="#263248"/>
<path d="M16.316 43.246C16.1947 42.7607 16.0387 42.0847 15.848 41.218L15.146 38.358L14.366 35.082L12.26 26.112H17.434L21.126 44H16.498L16.316 43.246ZM20.398 35.056L22.348 26.112H27.678L31.942 44H27.496L27.288 43.142L26.742 40.88L25.962 37.578C25.6327 36.2433 25.3207 34.9347 25.026 33.652H24.87L23.986 37.578L23.7 38.904C23.6133 39.268 23.5267 39.6147 23.44 39.944C23.3707 40.2733 23.3013 40.5853 23.232 40.88L22.712 43.142L22.504 44H22.218L20.398 35.056ZM30.902 34.9L32.462 26.112H37.636L35.504 35.082L34.724 38.358C34.3947 39.6927 34.1693 40.646 34.048 41.218L33.554 43.246L33.372 44H33.06L30.902 34.9ZM39.7735 26.84V26.112H44.9735L55.0095 43.246V44H49.8355L39.7735 26.84ZM50.0695 32.638V26.112H55.0095V41.088L50.0695 32.638ZM39.7735 28.998L44.7135 37.448V44H39.7735V28.998Z" fill="white"/>
</svg>
